<?xml version="1.0" encoding="UTF-8"?>
<svg id="_レイヤー_1" data-name="レイヤー 1" xmlns="http://www.w3.org/2000/svg" version="1.1" viewBox="0 0 1366 3000">
  <defs>
    <style>
      .cls-1 {
        fill: #555;
      }

      .cls-1, .cls-2, .cls-3 {
        stroke-width: 0px;
      }

      .cls-4 {
        font-family: Hubballi-Regular, Hubballi;
        font-size: 36px;
      }

      .cls-4, .cls-2 {
        fill: #5b573e;
      }

      .cls-3 {
        fill: #fff;
      }
    </style>
  </defs>
  <path class="cls-3" d="M907.5,1604.6h-455v-303.3h455v303.3ZM635,1445.6c1.2-3.3,2.3-6.6,3.5-10,.5,1.3,1.1,1.2,1.5.2.7-1.8,1-3.8,1.9-5.6.6-1.2,1.8-2,2.8-3,0,.6.1,1.1.2,1.3,1-1.2,2.1-2.4,3.1-3.6.1-.1.1-.4.2-.5,1.3-2.2,2.6-4.5,3.9-6.7h0c.5,2.2.2,4.2-1.2,6.1-.7,1-1.4,2.1-2,3.1,0,.1,0,.3,0,.6.4-.4.6-.7.9-1.1.1.5.2.8.3,1.1.2,0,.4.2.6.3,2.4-3,5-5.9,7.1-9.1,2.1-3.3,3.7-7,5.6-10.7,1,2.3,2,4.5,2.9,6.7.1,0,.3,0,.4-.1,0-.4,0-.7.1-1.3,1.9,2,1.8-1,2.8-.8.8.7,2,1.5,2.4,1.3.7-.5,1-1.7,1.6-2.8.1.7.2,1.2.3,2.2,1-4.1,2-7.7,2.9-11.3,3.8,9.4,8.5,17.9,19,21.9-.5-1.8-1-3.5-1.5-5,1.3,1.6,2.7,3.2,4,4.8,0-.2.1-.3.2-.5.6.1,1.1.3,1.7.4v-8.1c.2,0,.4-.1.6-.2,1.3,2.4,2.7,4.7,4,7.1.2,0,.5-.2.7-.2-.5-2.1-1.1-4.2-1.6-6.3,2.1,2.8,4.2,5.6,6.5,8.8.6-1.7,1.2-2.1,2.3-1.3.6.4,1.7.7,2.2.4.5-.3.6-1.4.5-2.2,0-1.7-.2-3.3-.3-5,.2,0,.5-.2.7-.2,4.2,6.1,7.9,12.7,14.9,15.7,0-.7-.2-1.6-.3-2.2,4.5.8,5.7,5.1,8.8,7.7.6-.9,1-1.6,1.4-2.2,2,1.9.9,5.6,4.2,6.6.5,2.9,3.1,4.1,5,5.7.1-1.1.2-2,.3-3,.2,0,.3,0,.5,0,2,3.5,4,7,6,10.4,0,0,.2,0,.3-.1l-.2-1.4c.5,4.5,4.4,5.3,7.5,6.8,1,.5,1.9.7,2.4,1.9.6,1.3,1.7,2.1,3.1.9,1.1-1,2-2.1,3.1-3.1,1-.9,2-2.3,3.2-2.6,2.9-.7,5.3,1.5,5.5,4.8.3,4.4-.7,8.4-3.9,11.6-2.4,2.4-4.9,4.8-7.3,7.1-.7.6-1.3,1.4-2.2,1.7-3,1.3-4.1,3.9-5.3,6.7-2.4,5.7-5,11.4-7.8,16.9-1,2-2.7,3.5-3.9,5.4-.5.8-.8,1.8-.9,2.7,0,.3,1.3,1,1.4.9,1.2-1.1,2.6-1.5,4.1-2,2.5-.9,5.1-2.3,6.2-5.1,1.4-3.7,5-4.7,7.8-6.8-1.4,2-3.8,3.2-4.1,5.9,1-.6,1.6-1.5,2.4-2.1,2.4-1.7,5.1-2.9,7.4-4.8,4.3-3.5,8.9-6.7,12.9-10.8,5.7-5.8,10-12.3,13.8-19.3.9-1.5,1.7-3.2,2.2-4.8,2.7-8.9,4.9-17.9,4.9-27.2,0-.2.1-.3.2-.5.3.3.6.5,1.2,1-.4-2.7-.9-4.9-1-7.2-.2-5.5-.8-10.8-3.7-15.7-1-1.7-1.8-3.7-2.7-5.5-2.6-5.2-5-10.6-7.8-15.7-5.2-9.6-10.8-18.9-16-28.5-2.7-5-6-9.5-10.5-13.1-1.8-1.4-3.4-3.3-4.9-5.1-4.6-5.1-9.3-10.2-15.2-13.9-2.6-1.7-5.5-3.1-8.4-4.2-4.4-1.7-8.8-3.6-13.4-4.5-3.7-.7-7.7,0-11.6,0,0,.2,0,.4,0,.5.6,0,1.2.2,1.9.3,0,.1,0,.2,0,.3-1,0-2,.1-3,.2v.3h4.4c-.9.3-1.7.2-2.6.3-.9,0-1.7,0-2.6.1-.5,0-1.1.3-1.6.5.2.5.4,1,.6,1.5.3.7.6,1.3,1,2.1-2.4-1.5-3.2-1.6-4.2,1.2-1,2.9-4.3,2.8-5.3,5.1,0,.1-.4.2-.5.1-1.6-.6-3.5-.8-4.7-1.8-2-1.7-3.6-3.9-5.2-6.1-1.1-1.6-2.1-3.1-4.3-3.3-1.2-.1-2.3-.9-3.4-1.5-2-1.2-4.1-2-6.5-1.5-2.6.4-5.2.8-7.7,1.5-6.3,2-12.9,3.2-18.1,7.7-3.3,2.9-6.8,5.6-10.1,8.5-2.1,1.9-3.8,4.4-6,6.2-7.1,6-13.6,12.6-17.8,21.1-.7,1.3-1.5,2.6-2.6,3.7-4.1,4.2-6.9,9.2-8.7,14.6-3.6,10.7-7.3,21.3-8.2,32.7,0,.3,0,.5-.1.8-.8,3.7-1.6,7.4-2.5,11.1-.8,3.5-.7,7.1-2.2,10.6-.9,2.2-.7,5.2-.2,7.8.9,4.9,2.3,9.8,3.7,14.7.5,2,1.5,3.8,3.5,4.8.4.2.6.8.8,1.3.8,1.5,1.6,3,2.3,4.5.7,1.4,1.3,2.9,2.1,4.1.6.9,1.6,1.5,2.5,2.2.4.3,1,.3,1.3.6,2.2,3,4.4,6,6.6,9.1,1.8,2.5,3.5,5.1,5.1,7.7,1.2,1.9,1.9,2,3.2.1,2.6-3.6,5.7-6.7,9.9-8.3.5-.2.8-.6.8-.5-2-6.2-4.1-12.1-5.7-18.1-2.1-8.4-1.8-16.8,2.5-24.7-.2.6-.3,1.3-.5,1.9l.7.2c.3-1.2.7-2.5,1-3.7-.3,0-.5,0-.8,0ZM723.9,1457.1c0,2.3,1.7,4.2,3.5,4.2,2.1,0,4.7-3.1,4.8-5.7,0-2-1.8-3.9-3.9-3.8-2.4.1-4.3,2.2-4.4,5.3ZM668.6,1458.1c-.7-1.3-1.2-2.8-2.2-3.8-1-1-3.8-.4-4.7.7-1.2,1.4-1.5,4.5-.5,6.1.7,1.2,2.9,2.1,4.3,1.7,1.6-.5,2.6-2.3,3.1-4.6ZM730.4,1441.4c-.4-2.1-2-3.5-3.6-3.2-1,.2-2,.6-1.7,2,2.8-.8,2.8-.8,5.3,1.2ZM658.2,1441.2c1.2-2.7,3.3-3.3,5.6-3.4-3-1.6-5.8,0-5.6,3.4ZM694.6,1480.8h.5v-7.1c-.2,0-.4,0-.5,0v7.1Z"/>
  <path class="cls-2" d="M652.2,1417.7c-1.3,2.2-2.6,4.5-3.9,6.7,0,.2-.1.4-.2.5-1,1.2-2.1,2.4-3.1,3.6,0-.2,0-.7-.2-1.3-1,1.1-2.2,1.9-2.8,3-.9,1.7-1.2,3.7-1.9,5.6-.4,1-1,1.1-1.5-.2-1.2,3.4-2.4,6.7-3.5,10-.2.5-.3,1.1-.5,1.6-4.2,7.9-4.6,16.3-2.5,24.7,1.5,6,3.7,11.9,5.7,18.1,1.3,4,1.8,11.5,1.8,11.6-4.9-2.9-9.9-5.8-14.8-8.7-1.4-1.6-4-4.4-7.1-7.1-3-2.7-4.5-3.5-5.5-3.9-.2,0-.7-.2-1.3-.6-.9-.7-1.9-1.3-2.5-2.2-.9-1.3-1.4-2.7-2.1-4.1-.8-1.5-1.5-3-2.3-4.5-.2-.5-.4-1.1-.8-1.3-2-1-2.9-2.8-3.5-4.8-1.3-4.9-2.7-9.7-3.7-14.7-.5-2.5-.7-5.5.2-7.8,1.5-3.5,1.3-7.1,2.2-10.6.9-3.7,1.6-7.4,2.5-11.1,0-.3,0-.5.1-.8.9-11.4,4.6-22,8.2-32.7,1.8-5.4,4.6-10.4,8.7-14.6,1-1.1,1.9-2.4,2.6-3.7,4.2-8.5,10.7-15,17.8-21.1,2.2-1.9,3.9-4.3,6-6.2,3.3-2.9,6.7-5.7,10.1-8.5,5.2-4.5,11.9-5.7,18.1-7.7,2.5-.8,5.1-1.1,7.7-1.5,2.4-.4,4.5.3,6.5,1.5,1.1.6,2.2,1.4,3.4,1.5,0,0,1,.6,4.3,3.3,7.9-1.1,15.7-2.3,23.6-3.4,0-.1,0-.2,0-.3-2.4.4-4.8.8-7.2,1.1l-7,1.1c-3.1.5-6.3,1-9.4,1.5-1.4-1.1-2.9-2.2-4.3-3.3,1.5-.3,22.5-4.9,37.6-1.3,6.6,1.6,13.4,4.5,13.4,4.5,2.9,1.1,5.8,2.5,8.4,4.2,5.9,3.7,10.6,8.8,15.2,13.9,1.6,1.8,3.1,3.6,4.9,5.1,4.5,3.6,7.8,8,10.5,13.1,5.2,9.6,10.8,18.9,16,28.5,2.8,5.1,5.2,10.5,7.8,15.7.9,1.8,1.6,3.7,2.7,5.5,2.9,4.9,3.4,10.2,3.7,15.7,0,2.3.6,4.5,1,7.2-.6-.5-.9-.7-1.2-1,0,.2-.2.3-.2.5,0,9.4-2.2,18.4-4.9,27.2-.5,1.7-1.4,3.3-2.2,4.8-3.8,7-8.2,13.5-13.8,19.3-4,4.1-8.5,7.3-12.9,10.8-2.3,1.8-5,3.1-7.4,4.8-.9.6-1.5,1.5-2.4,2.1.3-2.7,2.7-3.9,4.1-5.9-2.8,2.1-6.4,3.1-7.8,6.8-1.1,2.8-3.7,4.2-6.2,5.1-1.5.5-3,.9-4.1,2-.1,0-1.4-.6-1.4-.9,0-.9.3-1.9.9-2.7,1.2-1.9,3-3.4,3.9-5.4,2.8-5.6,5.3-11.2,7.8-16.9,1.2-2.8,2.3-5.4,5.3-6.7.8-.3,1.5-1.1,2.2-1.7,2.5-2.4,4.9-4.7,7.3-7.1,3.2-3.2,4.2-7.2,3.9-11.6-.2-3.4-2.7-5.6-5.5-4.8-1.2.3-2.2,1.7-3.2,2.6-1.1,1-2,2.1-3.1,3.1-1.4,1.2-2.6.4-3.1-.9-.5-1.2-1.4-1.4-2.4-1.9-3.1-1.5-7-2.3-7.5-6.8,0,.5.1.9.2,1.4,0,0-.2,0-.3.1-2-3.5-4-7-6-10.4-.2,0-.3,0-.5,0-.1.9-.2,1.9-.3,3-1.9-1.6-4.4-2.7-5-5.7-3.3-1-2.1-4.8-4.2-6.6-.4.6-.8,1.3-1.4,2.2-3.1-2.6-4.3-6.9-8.8-7.7,0,.6.2,1.5.3,2.2-7-3-10.7-9.7-14.9-15.7-.2,0-.5.2-.7.2.1,1.7.3,3.3.3,5,0,.7,0,1.9-.5,2.2-.5.3-1.6,0-2.2-.4-1.1-.7-1.7-.3-2.3,1.3-2.3-3.1-4.4-6-6.5-8.8.5,2.1,1.1,4.2,1.6,6.3-.2,0-.5.2-.7.2-1.3-2.4-2.7-4.7-4-7.1-.2,0-.4.1-.6.2v8.1c-.6-.1-1.1-.3-1.7-.4,0,.2-.1.3-.2.5-1.3-1.6-2.7-3.2-4-4.8.5,1.6.9,3.2,1.5,5-10.5-4-15.2-12.4-19-21.9-.9,3.6-1.8,7.2-2.9,11.3-.1-.9-.2-1.4-.3-2.2-.6,1.1-.8,2.3-1.6,2.8-.4.3-1.6-.6-2.4-1.3-1-.1-.9,2.8-2.8.8,0,.5,0,.9-.1,1.3-.1,0-.3,0-.4.1-1-2.2-1.9-4.4-2.9-6.7-1.9,3.7-3.5,7.4-5.6,10.7-2.1,3.2-4.7,6.1-7.1,9.1-.2,0-.4-.2-.6-.3,0-.3-.2-.7-.3-1.1-.3.4-.6.7-.9,1.1,1.1-3.3,2.1-6.6,3.2-9.8Z"/>
  <path class="cls-2" d="M723.9,1457.1c0-3.2,2-5.2,4.4-5.3,2.1-.1,3.9,1.8,3.9,3.8,0,2.6-2.6,5.7-4.8,5.7-1.9,0-3.5-2-3.5-4.2ZM727.1,1455.8c.8.7,1.3,1.1,1.8,1.6.5-.6,1-1.3,1.3-2,0-.2-.8-1.1-.9-1.1-.7.3-1.2.8-2.2,1.5Z"/>
  <path class="cls-2" d="M668,1456.1c1.1,3.1-.3,6-2.4,6.6-1.6.5-3.5-.3-4.3-1.7-1-1.7-.7-4.7.5-6.1,1-1.2,3.1-1.6,4.7-.7.9.5,1.3,1.4,1.5,1.8ZM666.4,1457c-.5-.6-.9-1.1-1.2-1.6-.4.6-1,1.2-1.1,1.8,0,.3.7.8,1.1,1.3.4-.4.7-.9,1.2-1.5Z"/>
  <path class="cls-2" d="M730.4,1441.4c-2.5-2-2.5-2-5.3-1.2-.3-1.4.7-1.8,1.7-2,1.6-.3,3.2,1.1,3.6,3.2Z"/>
  <path class="cls-2" d="M658.2,1441.2c-.2-3.5,2.5-5,5.6-3.4-2.3.1-4.4.7-5.6,3.4Z"/>
  <path class="cls-2" d="M694.9,1483.6c-.1-.9-.2-2-.2-3.1,0-2,.2-3.8.6-5.2l.6,5h0c-.3,1.1-.6,2.2-.9,3.3Z"/>
  <path class="cls-3" d="M-21.5,3000h0Z"/>
  <path class="cls-3" d="M727.1,1455.8c-.1-.7.2-1.4.7-1.7.6-.3,1.3,0,1.5.2.1,0,.7.4.9,1.1,0,.1.2.8-.2,1.3-.4.5-1.3.7-2.1.3-.3-.4-.5-.8-.8-1.2Z"/>
  <path class="cls-3" d="M666.4,1457h0c-.4.5-.8,1-1.2,1.5-.3-.2-.8-.5-1-1,0-.1,0-.2,0-.3,0-.3-.2-.8,0-1.2.3-.6,1.1-.6,1.1-.6l1.2,1.6Z"/>
  <text/>
  <path class="cls-3" d="M688.9,1458"/>
  <text/>
  <path class="cls-3" d="M719.7,1571c-6.6,8.9-17.1,13.1-38.1,21.4-14.8,5.9-25.7,10.4-41,12.1-12.6,1.4-42.7,4.6-68-12.1-5.6-3.7-26.1-16.9-26.7-37.4-.4-13.7,8.2-23.9,11.5-27.9,9.5-11.4,21.6-16.3,29.3-19.5,5.8-2.4,16.9-6.2,31.4-7.1,10.4-.6,11.3.9,26.8,1.6,25.3,1.1,28.7-2.9,41.5-.1,18.1,3.9,28.7,15.6,29.7,16.7,13.2,14.9,14.8,37.2,3.7,52.3Z"/>
  <text class="cls-4" transform="translate(566.1 1553.1)"><tspan x="0" y="0">lodhinng...</tspan></text>
  <path class="cls-1" d="M709.4,1506"/>
</svg>