<?xml version="1.0" encoding="UTF-8"?>
<svg id="_レイヤー_2" data-name="レイヤー 2" xmlns="http://www.w3.org/2000/svg" xmlns:xlink="http://www.w3.org/1999/xlink" viewBox="0 0 32 32">
  <defs>
    <style>
      .cls-1 {
        clip-path: url(#clippath);
      }

      .cls-2 {
        fill: none;
      }

      .cls-2, .cls-3 {
        stroke-width: 0px;
      }

      .cls-4 {
        clip-path: url(#clippath-1);
      }

      .cls-3 {
        fill: #000;
      }

      .cls-5 {
        opacity: .5;
      }
    </style>
    <clipPath id="clippath">
      <rect class="cls-2" width="32" height="32"/>
    </clipPath>
    <clipPath id="clippath-1">
      <rect class="cls-2" width="32" height="32"/>
    </clipPath>
  </defs>
  <g id="_パーツ" data-name="パーツ">
    <g class="cls-5">
      <g class="cls-1">
        <g class="cls-4">
          <path class="cls-3" d="M9.41.19c-1.69.08-2.85.35-3.86.75-1.05.41-1.93.95-2.82,1.84-.88.89-1.43,1.78-1.83,2.82-.39,1.01-.66,2.17-.73,3.87-.07,1.7-.09,2.24-.08,6.56,0,4.32.03,4.87.11,6.56.08,1.69.35,2.85.75,3.86.41,1.05.95,1.93,1.84,2.82.89.88,1.78,1.43,2.82,1.83,1.01.39,2.17.66,3.87.73,1.7.07,2.24.09,6.56.08,4.32,0,4.87-.03,6.56-.11,1.69-.08,2.85-.35,3.86-.75,1.05-.41,1.93-.95,2.82-1.84.88-.89,1.43-1.78,1.83-2.82.39-1.01.66-2.17.73-3.86.07-1.7.09-2.24.08-6.56,0-4.32-.03-4.86-.11-6.56-.08-1.7-.35-2.85-.75-3.86-.41-1.05-.95-1.93-1.84-2.82-.89-.88-1.78-1.43-2.82-1.83-1.01-.39-2.17-.66-3.87-.73-1.7-.08-2.24-.09-6.56-.08-4.32,0-4.86.03-6.56.11M9.59,28.97c-1.55-.07-2.39-.33-2.96-.54-.74-.29-1.27-.63-1.83-1.19-.56-.56-.9-1.09-1.19-1.83-.22-.56-.48-1.4-.55-2.96-.08-1.68-.1-2.18-.1-6.43,0-4.25,0-4.75.08-6.43.07-1.55.33-2.39.54-2.96.29-.74.63-1.27,1.19-1.83.56-.56,1.09-.9,1.83-1.19.56-.22,1.4-.48,2.95-.55,1.68-.08,2.18-.1,6.43-.1,4.25,0,4.75,0,6.43.08,1.55.07,2.39.32,2.96.54.74.29,1.28.63,1.83,1.19.56.56.9,1.08,1.19,1.83.22.56.48,1.4.55,2.95.08,1.68.1,2.18.11,6.43,0,4.25,0,4.75-.08,6.43-.07,1.55-.32,2.4-.54,2.96-.29.74-.63,1.27-1.19,1.83-.56.56-1.09.9-1.83,1.19-.56.22-1.4.48-2.95.55-1.68.08-2.18.1-6.43.1-4.25,0-4.75,0-6.43-.08M22.57,7.49c0,1.05.86,1.91,1.91,1.91,1.05,0,1.91-.86,1.91-1.91,0-1.05-.86-1.91-1.91-1.91-1.05,0-1.91.86-1.91,1.91M7.83,16.02c0,4.52,3.68,8.17,8.19,8.16,4.51,0,8.17-3.67,8.16-8.19,0-4.51-3.68-8.17-8.19-8.16-4.51,0-8.17,3.68-8.16,8.19M10.69,16.01c0-2.93,2.37-5.31,5.3-5.32,2.93,0,5.31,2.37,5.32,5.3s-2.37,5.31-5.3,5.32c-2.93,0-5.31-2.37-5.32-5.3"/>
        </g>
      </g>
    </g>
  </g>
</svg>