<?xml version="1.0" encoding="UTF-8"?>
<svg id="_レイヤー_2" data-name="レイヤー 2" xmlns="http://www.w3.org/2000/svg" viewBox="0 0 604.33 609.16">
  <defs>
    <style>
      .cls-1 {
        fill: #d8e3e5;
        stroke-width: 0px;
      }
    </style>
  </defs>
  <g id="_パーツ" data-name="パーツ">
    <path class="cls-1" d="M16.1,196.61C68,56.59,236.84,17.75,269.02,11.18c46.45-9.47,153.22-31.24,239.24,34.3,93.54,71.27,95.34,194.6,96,240,.43,29.43.5,114.92-56,197-37.36,54.27-81.84,81.47-91.53,87.22-86.41,51.28-173.25,39.36-199.41,35.38-17.19-2.62-84.04-14.27-147.95-64.33-18.95-14.84-52.67-41.84-76.11-89.27-3.41-6.89-10.63-22.36-16.86-45.65-7.47-27.88-32.66-121.92-.3-209.23Z"/>
  </g>
</svg>