<?xml version="1.0" encoding="UTF-8"?>
<svg id="_レイヤー_2" data-name="レイヤー 2" xmlns="http://www.w3.org/2000/svg" viewBox="0 0 495.93 392.42">
  <defs>
    <style>
      .cls-1 {
        fill: none;
        stroke: #dbdbdb;
        stroke-miterlimit: 10;
      }
    </style>
  </defs>
  <g id="_パーツ" data-name="パーツ">
    <path class="cls-1" d="M492.43,219.2c-1.99,12.65-5.99,38.11-22.93,63.51-7.57,11.35-16.96,21.54-22,27-7.13,7.73-16.25,17.53-30,28-10.39,7.91-19.33,13.09-33,21-9.6,5.56-17.49,9.71-20,11-31.3,16-77.89,20.45-84,21-14.15,1.27-64.11,4.86-128-12-25.44-6.71-44.18-11.66-67-25-19.97-11.68-58.16-34-76-80-17.07-44-5.64-84.19,0-104,4.08-14.34,13.9-42.43,37-70,18.86-22.51,37.8-34.21,65-51,18.03-11.13,40.82-25.2,69-35,82.26-28.6,159.43-3.09,183.56,5.24,37.94,13.11,70.72,24.44,97.15,57.5,44.84,56.08,33.63,127.45,31.23,142.75Z"/>
  </g>
</svg>